<?xml version="1.0" encoding="utf-8"?>
<svg id="master-artboard" viewBox="0 0 248.22959899902344 91.77027130126953" xmlns="http://www.w3.org/2000/svg" width="248.22959899902344px" height="91.77027130126953px" version="1.1" style="shape-rendering:geometricPrecision; text-rendering:geometricPrecision; image-rendering:optimizeQuality; fill-rule:evenodd; clip-rule:evenodd"><defs><style id="ee-google-fonts">@import url(https://fonts.googleapis.com/css?family=Keania+One:400);</style></defs><rect id="ee-background" x="0" y="0" width="248.22959899902344" height="91.77027130126953" style="fill: white; fill-opacity: 0; pointer-events: none;"/><path d="M 49.184783935546875 57.959999084472656 L 46.54478454589844 57.959999084472656 L 46.54478454589844 66 L 44.024784088134766 66 C 43.48478317260742 66 43.13145065307617 65.913330078125 42.96478271484375 65.73999786376953 C 42.79145050048828 65.55999755859375 42.70478439331055 65.19000244140625 42.70478439331055 64.62999725341797 L 42.70478439331055 48.650001525878906 L 45.684783935546875 48.650001525878906 C 45.93811798095703 48.650001525878906 46.14478302001953 48.736663818359375 46.30478286743164 48.90999984741211 C 46.46478271484375 49.09000015258789 46.54478454589844 49.323333740234375 46.54478454589844 49.61000061035156 L 46.54478454589844 55.68000030517578 L 49.184783935546875 55.68000030517578 L 49.184783935546875 57.959999084472656 M 50.14478302001953 48.650001525878906 L 52.6647834777832 48.650001525878906 C 53.211448669433594 48.650001525878906 53.568115234375 48.736663818359375 53.73478317260742 48.90999984741211 C 53.901451110839844 49.09000015258789 53.98478317260742 49.459999084472656 53.98478317260742 50.02000045776367 L 53.98478317260742 66 L 51.01478576660156 66 C 50.754783630371094 66 50.54478454589844 65.913330078125 50.38478469848633 65.73999786376953 C 50.22478485107422 65.55999755859375 50.14478302001953 65.32666778564453 50.14478302001953 65.04000091552734 L 50.14478302001953 48.650001525878906 ZM 61.376773834228516 54 L 63.70677185058594 54 C 64.31343841552734 54 64.81010437011719 54.02666473388672 65.19677734375 54.08000183105469 C 65.58344268798828 54.13999938964844 65.92010498046875 54.266666412353516 66.20677185058594 54.459999084472656 C 66.49343872070312 54.64666748046875 66.7101058959961 54.856666564941406 66.85677337646484 55.09000015258789 C 66.99677276611328 55.323333740234375 67.10677337646484 55.6966667175293 67.18677520751953 56.209999084472656 C 67.31343841552734 56.93000030517578 67.37677001953125 57.936668395996094 67.37677001953125 59.22999954223633 C 67.37677001953125 60.529998779296875 67.37010955810547 61.40666580200195 67.35677337646484 61.86000061035156 C 67.34344482421875 62.313331604003906 67.3167724609375 62.79666519165039 67.27677154541016 63.310001373291016 C 67.23677062988281 63.823333740234375 67.16343688964844 64.19999694824219 67.05677795410156 64.44000244140625 C 66.95010375976562 64.68000030517578 66.81343841552734 64.92333221435547 66.64677429199219 65.16999816894531 C 66.48011016845703 65.41666412353516 66.2601089477539 65.58999633789062 65.98677062988281 65.69000244140625 C 65.39344024658203 65.89666748046875 64.63343811035156 66 63.70677185058594 66 L 63.65677261352539 66 L 63.65677261352539 56.95000076293945 C 63.65677261352539 56.91666793823242 63.65677261352539 56.81999969482422 63.65677261352539 56.65999984741211 C 63.65677261352539 56.5 63.650108337402344 56.366668701171875 63.63677215576172 56.26000213623047 C 63.5567741394043 55.953330993652344 63.23677444458008 55.79999923706055 62.67677307128906 55.79999923706055 L 61.376773834228516 55.79999923706055 L 61.376773834228516 54 M 60.65677261352539 54 L 60.65677261352539 63.04999923706055 C 60.65677261352539 63.08333206176758 60.65677261352539 63.18000030517578 60.65677261352539 63.34000015258789 C 60.65677261352539 63.5 60.673439025878906 63.63333511352539 60.70677185058594 63.7400016784668 C 60.773441314697266 64.04666900634766 61.08677291870117 64.19999694824219 61.64677429199219 64.19999694824219 L 62.93677520751953 64.19999694824219 L 62.93677520751953 66 L 60.61677551269531 66 C 60.003440856933594 66 59.50677490234375 65.97333526611328 59.126773834228516 65.91999816894531 C 58.740108489990234 65.86000061035156 58.4034423828125 65.73332977294922 58.11677551269531 65.54000091552734 C 57.830108642578125 65.35333251953125 57.613441467285156 65.1433334350586 57.466773986816406 64.91000366210938 C 57.32677459716797 64.67666625976562 57.2067756652832 64.30332946777344 57.106773376464844 63.790000915527344 C 56.993438720703125 63.06999969482422 56.93677520751953 62.063331604003906 56.93677520751953 60.77000045776367 C 56.93677520751953 59.470001220703125 56.946773529052734 58.59333419799805 56.966773986816406 58.13999938964844 C 56.980106353759766 57.686668395996094 57.00677490234375 57.203330993652344 57.046775817871094 56.689998626708984 C 57.08677291870117 56.176666259765625 57.16010665893555 55.79999923706055 57.26677322387695 55.560001373291016 C 57.36677551269531 55.31999969482422 57.503440856933594 55.07666778564453 57.67677307128906 54.83000183105469 C 57.843441009521484 54.58333206176758 58.06344223022461 54.40999984741211 58.33677291870117 54.310001373291016 C 58.923439025878906 54.10333251953125 59.683441162109375 54 60.61677551269531 54 L 60.65677261352539 54 ZM 76.09475708007812 65.80999755859375 C 76.09475708007812 65.90333557128906 76.04476165771484 65.96666717529297 75.94476318359375 66 L 74.124755859375 66 C 72.95809173583984 66 72.1114273071289 65.76667022705078 71.58476257324219 65.30000305175781 C 71.05142211914062 64.83999633789062 70.78475952148438 64.02666473388672 70.78475952148438 62.86000061035156 L 70.78475952148438 55.849998474121094 L 69.56475830078125 55.849998474121094 C 69.16475677490234 55.849998474121094 68.96475982666016 55.61000061035156 68.96475982666016 55.130001068115234 L 68.96475982666016 54 L 70.78475952148438 54 L 70.78475952148438 48.650001525878906 L 72.2547607421875 48.650001525878906 C 72.95475769042969 48.650001525878906 73.48475646972656 48.82666778564453 73.84475708007812 49.18000030517578 C 74.20475769042969 49.52666473388672 74.38475799560547 49.97333526611328 74.38475799560547 50.52000045776367 L 74.38475799560547 63.290000915527344 C 74.38475799560547 63.88333511352539 74.72142791748047 64.18000030517578 75.39476013183594 64.18000030517578 L 75.9047622680664 64.18000030517578 C 76.03142547607422 64.18000030517578 76.09475708007812 64.23332977294922 76.09475708007812 64.33999633789062 L 76.09475708007812 65.80999755859375 M 76.83476257324219 54 L 76.83476257324219 55.130001068115234 C 76.83476257324219 55.61000061035156 76.63475799560547 55.849998474121094 76.23475646972656 55.849998474121094 L 74.98475646972656 55.849998474121094 L 74.98475646972656 54 L 76.83476257324219 54 ZM 81.96875762939453 66 L 81.92875671386719 66 C 80.34208679199219 66 79.36542510986328 65.72666931152344 78.9987564086914 65.18000030517578 C 78.81875610351562 64.92666625976562 78.67875671386719 64.68000030517578 78.5787582397461 64.44000244140625 C 78.47209167480469 64.19999694824219 78.40209197998047 63.823333740234375 78.3687515258789 63.310001373291016 C 78.28875732421875 62.38333511352539 78.2487564086914 61.35333251953125 78.2487564086914 60.220001220703125 C 78.2487564086914 59.08000183105469 78.25875854492188 58.26000213623047 78.27875518798828 57.76000213623047 C 78.2920913696289 57.253334045410156 78.34208679199219 56.73999786376953 78.42875671386719 56.220001220703125 C 78.52208709716797 55.70000076293945 78.63875579833984 55.323333740234375 78.77875518798828 55.09000015258789 C 78.92542266845703 54.856666564941406 79.14208984375 54.64666748046875 79.42875671386719 54.459999084472656 C 79.71542358398438 54.266666412353516 80.05208587646484 54.13999938964844 80.43875885009766 54.08000183105469 C 80.81875610351562 54.02666473388672 81.31542205810547 54 81.92875671386719 54 L 81.96875762939453 54 L 81.96875762939453 66 M 88.35875701904297 62.209999084472656 L 88.35875701904297 63.43000030517578 C 88.35875701904297 65.1433334350586 87.48542022705078 66 85.73875427246094 66 L 82.71875762939453 66 L 82.71875762939453 64.19999694824219 L 84.00875854492188 64.19999694824219 C 84.3487548828125 64.19999694824219 84.55875396728516 64.14666748046875 84.63875579833984 64.04000091552734 C 84.71875762939453 63.939998626708984 84.75875854492188 63.753334045410156 84.75875854492188 63.47999954223633 L 84.75875854492188 62.709999084472656 C 84.75875854492188 62.470001220703125 84.7854232788086 62.33333206176758 84.83875274658203 62.29999923706055 C 84.89875793457031 62.27333450317383 84.9354248046875 62.253334045410156 84.9487533569336 62.2400016784668 C 84.96208953857422 62.233333587646484 85.00542449951172 62.22666549682617 85.0787582397461 62.220001220703125 C 85.15208435058594 62.21333312988281 85.2054214477539 62.209999084472656 85.23875427246094 62.209999084472656 C 86.27875518798828 62.209999084472656 87.31875610351562 62.209999084472656 88.35875701904297 62.209999084472656 M 82.71875762939453 54 L 85.4987564086914 54 C 86.60542297363281 54 87.35875701904297 54.21666717529297 87.75875854492188 54.650001525878906 C 88.15875244140625 55.08333206176758 88.35875701904297 55.72333526611328 88.35875701904297 56.56999969482422 L 88.35875701904297 58.68000030517578 C 88.35875701904297 60.119998931884766 87.57542419433594 60.84000015258789 86.00875854492188 60.84000015258789 L 82.47875213623047 60.84000015258789 L 82.47875213623047 59.040000915527344 L 83.76875305175781 59.040000915527344 C 84.1554183959961 59.040000915527344 84.41542053222656 58.99333190917969 84.54875183105469 58.900001525878906 C 84.68875122070312 58.79999923706055 84.75875854492188 58.61333465576172 84.75875854492188 58.34000015258789 L 84.75875854492188 56.52000045776367 C 84.75875854492188 56.246665954589844 84.71875762939453 56.060001373291016 84.63875579833984 55.959999084472656 C 84.55875396728516 55.85333251953125 84.3487548828125 55.79999923706055 84.00875854492188 55.79999923706055 L 82.71875762939453 55.79999923706055 L 82.71875762939453 54 ZM 96.00875091552734 65.83000183105469 C 96.00875091552734 65.9433364868164 95.96875 66 95.88874816894531 66 L 93.46875 66 C 92.5754165649414 66 91.91542053222656 65.7933349609375 91.48875427246094 65.37999725341797 C 91.06208801269531 64.95999908447266 90.84874725341797 64.27999877929688 90.84874725341797 63.34000015258789 L 90.84874725341797 48.66999816894531 L 92.3187484741211 48.66999816894531 C 93.01875305175781 48.66999816894531 93.54875183105469 48.84333419799805 93.90875244140625 49.19000244140625 C 94.26875305175781 49.529998779296875 94.4487533569336 49.97333526611328 94.4487533569336 50.52000045776367 L 94.4487533569336 63.290000915527344 C 94.4487533569336 63.78333282470703 94.555419921875 64.0633316040039 94.76875305175781 64.12999725341797 C 94.87541961669922 64.17666625976562 95.02542114257812 64.19999694824219 95.21875 64.19999694824219 L 95.8187484741211 64.19999694824219 C 95.94541931152344 64.19999694824219 96.00875091552734 64.25666809082031 96.00875091552734 64.37000274658203 L 96.00875091552734 65.83000183105469 Z" transform="matrix(4.0011515617370605, 0, 0, 4.0011515617370605, -152.3295135498047, -183.23118591308594)" style="fill: rgb(33, 33, 33); white-space: pre; color: rgb(51, 51, 51); stroke: rgb(17, 8, 0);"/></svg>