<?xml version="1.0" encoding="utf-8"?>
<svg id="master-artboard" viewBox="0 0 400.234130859375 108.0980224609375" version="1.1" xmlns="http://www.w3.org/2000/svg" x="0px" y="0px" style="enable-background:new 0 0 1400 980;" width="400.234130859375px" height="108.0980224609375px"><defs><style id="ee-google-fonts">@import url(https://fonts.googleapis.com/css?family=Bungee:400);</style></defs><path d="M 68.3636474609375 64.13201904296875 L 64.64364624023438 64.13201904296875 C 64.33698272705078 64.13201904296875 64.11698150634766 64.06535339355469 63.983646392822266 63.9320182800293 C 63.850311279296875 63.79201889038086 63.78364562988281 63.572017669677734 63.78364562988281 63.27201843261719 L 63.78364562988281 47.71202087402344 C 63.78364562988281 47.412017822265625 63.850311279296875 47.1920166015625 63.983646392822266 47.05201721191406 C 64.11698150634766 46.91868591308594 64.33698272705078 46.852020263671875 64.64364624023438 46.852020263671875 L 68.3636474609375 46.852020263671875 C 68.6703109741211 46.852020263671875 68.89031219482422 46.91868591308594 69.02364349365234 47.05201721191406 C 69.156982421875 47.1920166015625 69.22364807128906 47.412017822265625 69.22364807128906 47.71202087402344 L 69.22364807128906 52.922019958496094 L 73.233642578125 52.922019958496094 L 73.233642578125 47.71202087402344 C 73.233642578125 47.412017822265625 73.30364990234375 47.1920166015625 73.44364929199219 47.05201721191406 C 73.57698059082031 46.91868591308594 73.79698181152344 46.852020263671875 74.10364532470703 46.852020263671875 L 77.82364654541016 46.852020263671875 C 78.12364196777344 46.852020263671875 78.34364318847656 46.91868591308594 78.483642578125 47.05201721191406 C 78.61698150634766 47.1920166015625 78.68364715576172 47.412017822265625 78.68364715576172 47.71202087402344 L 78.68364715576172 63.27201843261719 C 78.68364715576172 63.572017669677734 78.61698150634766 63.79201889038086 78.483642578125 63.9320182800293 C 78.34364318847656 64.06535339355469 78.12364196777344 64.13201904296875 77.82364654541016 64.13201904296875 L 74.10364532470703 64.13201904296875 C 73.79698181152344 64.13201904296875 73.57698059082031 64.06535339355469 73.44364929199219 63.9320182800293 C 73.30364990234375 63.79201889038086 73.233642578125 63.572017669677734 73.233642578125 63.27201843261719 L 73.233642578125 57.942020416259766 L 69.22364807128906 57.942020416259766 L 69.22364807128906 63.27201843261719 C 69.22364807128906 63.572017669677734 69.156982421875 63.79201889038086 69.02364349365234 63.9320182800293 C 68.89031219482422 64.06535339355469 68.6703109741211 64.13201904296875 68.3636474609375 64.13201904296875 ZM 96.63896179199219 59.592018127441406 C 96.63896179199219 60.3320198059082 96.52896118164062 61.002017974853516 96.3089599609375 61.602020263671875 C 96.09562683105469 62.20201873779297 95.71229553222656 62.71202087402344 95.1589584350586 63.13201904296875 C 94.60562133789062 63.558685302734375 93.84562683105469 63.89201736450195 92.87895965576172 64.13201904296875 C 91.91229248046875 64.37201690673828 90.68562316894531 64.49201965332031 89.19895935058594 64.49201965332031 C 87.70562744140625 64.49201965332031 86.4722900390625 64.37201690673828 85.49896240234375 64.13201904296875 C 84.52562713623047 63.89201736450195 83.76229095458984 63.558685302734375 83.2089614868164 63.13201904296875 C 82.65562438964844 62.71202087402344 82.27229309082031 62.20201873779297 82.0589599609375 61.602020263671875 C 81.83895874023438 61.002017974853516 81.72895812988281 60.3320198059082 81.72895812988281 59.592018127441406 L 81.72895812988281 51.412017822265625 C 81.72895812988281 50.678688049316406 81.83895874023438 50.012020111083984 82.0589599609375 49.412017822265625 C 82.27229309082031 48.81201934814453 82.65562438964844 48.295352935791016 83.2089614868164 47.86201858520508 C 83.76229095458984 47.428688049316406 84.52562713623047 47.092018127441406 85.49896240234375 46.852020263671875 C 86.4722900390625 46.61201858520508 87.70562744140625 46.49201965332031 89.19895935058594 46.49201965332031 C 90.68562316894531 46.49201965332031 91.91229248046875 46.61201858520508 92.87895965576172 46.852020263671875 C 93.84562683105469 47.092018127441406 94.60562133789062 47.428688049316406 95.1589584350586 47.86201858520508 C 95.71229553222656 48.295352935791016 96.09562683105469 48.81201934814453 96.3089599609375 49.412017822265625 C 96.52896118164062 50.012020111083984 96.63896179199219 50.678688049316406 96.63896179199219 51.412017822265625 L 96.63896179199219 59.592018127441406 M 87.178955078125 58.732017517089844 C 87.178955078125 59.05201721191406 87.29895782470703 59.318687438964844 87.53895568847656 59.532020568847656 C 87.77896118164062 59.752017974853516 88.33229064941406 59.86201858520508 89.19895935058594 59.86201858520508 C 90.0589599609375 59.86201858520508 90.60896301269531 59.752017974853516 90.84896087646484 59.532020568847656 C 91.08895874023438 59.318687438964844 91.2089614868164 59.05201721191406 91.2089614868164 58.732017517089844 L 91.2089614868164 52.27201843261719 C 91.2089614868164 51.97201919555664 91.08895874023438 51.71202087402344 90.84896087646484 51.49201965332031 C 90.60896301269531 51.2786865234375 90.0589599609375 51.172019958496094 89.19895935058594 51.172019958496094 C 88.33229064941406 51.172019958496094 87.77896118164062 51.2786865234375 87.53895568847656 51.49201965332031 C 87.29895782470703 51.71202087402344 87.178955078125 51.97201919555664 87.178955078125 52.27201843261719 L 87.178955078125 58.732017517089844 ZM 107.7262954711914 64.13201904296875 L 103.83629608154297 64.13201904296875 C 103.52963256835938 64.13201904296875 103.30963134765625 64.06535339355469 103.1762924194336 63.9320182800293 C 103.03629302978516 63.79201889038086 102.96629333496094 63.572017669677734 102.96629333496094 63.27201843261719 L 102.96629333496094 51.482017517089844 L 99.44629669189453 51.482017517089844 C 99.1396255493164 51.482017517089844 98.91963195800781 51.41535186767578 98.78629302978516 51.282020568847656 C 98.64629364013672 51.14202117919922 98.5762939453125 50.922019958496094 98.5762939453125 50.62201690673828 L 98.5762939453125 47.71202087402344 C 98.5762939453125 47.412017822265625 98.64629364013672 47.1920166015625 98.78629302978516 47.05201721191406 C 98.91963195800781 46.91868591308594 99.1396255493164 46.852020263671875 99.44629669189453 46.852020263671875 L 112.11629486083984 46.852020263671875 C 112.41629791259766 46.852020263671875 112.63629150390625 46.91868591308594 112.77629852294922 47.05201721191406 C 112.90962982177734 47.1920166015625 112.9762954711914 47.412017822265625 112.9762954711914 47.71202087402344 L 112.9762954711914 50.62201690673828 C 112.9762954711914 50.922019958496094 112.90962982177734 51.14202117919922 112.77629852294922 51.282020568847656 C 112.63629150390625 51.41535186767578 112.41629791259766 51.482017517089844 112.11629486083984 51.482017517089844 L 108.58629608154297 51.482017517089844 L 108.58629608154297 63.27201843261719 C 108.58629608154297 63.572017669677734 108.5196304321289 63.79201889038086 108.38629150390625 63.9320182800293 C 108.24629211425781 64.06535339355469 108.02629852294922 64.13201904296875 107.7262954711914 64.13201904296875 ZM 127.30970764160156 64.13201904296875 L 116.16970825195312 64.13201904296875 C 115.86304473876953 64.13201904296875 115.6430435180664 64.06535339355469 115.50971221923828 63.9320182800293 C 115.37638092041016 63.79201889038086 115.3097152709961 63.572017669677734 115.3097152709961 63.27201843261719 L 115.3097152709961 47.71202087402344 C 115.3097152709961 47.412017822265625 115.37638092041016 47.1920166015625 115.50971221923828 47.05201721191406 C 115.6430435180664 46.91868591308594 115.86304473876953 46.852020263671875 116.16970825195312 46.852020263671875 L 127.30970764160156 46.852020263671875 C 127.60971069335938 46.852020263671875 127.8297119140625 46.91868591308594 127.96971130371094 47.05201721191406 C 128.10304260253906 47.1920166015625 128.16970825195312 47.412017822265625 128.16970825195312 47.71202087402344 L 128.16970825195312 50.52201843261719 C 128.16970825195312 50.82868576049805 128.10304260253906 51.04868698120117 127.96971130371094 51.1820182800293 C 127.8297119140625 51.322017669677734 127.60971069335938 51.39202117919922 127.30970764160156 51.39202117919922 L 120.6797103881836 51.39202117919922 L 120.6797103881836 53.232017517089844 L 125.35971069335938 53.232017517089844 C 125.6663818359375 53.232017517089844 125.8863754272461 53.30201721191406 126.01971435546875 53.442020416259766 C 126.15971374511719 53.57535171508789 126.2297134399414 53.795352935791016 126.2297134399414 54.102020263671875 L 126.2297134399414 56.672019958496094 C 126.2297134399414 56.97201919555664 126.15971374511719 57.192020416259766 126.01971435546875 57.3320198059082 C 125.8863754272461 57.46535110473633 125.6663818359375 57.532020568847656 125.35971069335938 57.532020568847656 L 120.6797103881836 57.532020568847656 L 120.6797103881836 59.592018127441406 L 127.30970764160156 59.592018127441406 C 127.60971069335938 59.592018127441406 127.8297119140625 59.662017822265625 127.96971130371094 59.80201721191406 C 128.10304260253906 59.93535232543945 128.16970825195312 60.15535354614258 128.16970825195312 60.46202087402344 L 128.16970825195312 63.27201843261719 C 128.16970825195312 63.572017669677734 128.10304260253906 63.79201889038086 127.96971130371094 63.9320182800293 C 127.8297119140625 64.06535339355469 127.60971069335938 64.13201904296875 127.30970764160156 64.13201904296875 ZM 144.0851287841797 64.13201904296875 L 131.86512756347656 64.13201904296875 C 131.55845642089844 64.13201904296875 131.3384552001953 64.06535339355469 131.2051239013672 63.9320182800293 C 131.07179260253906 63.79201889038086 131.005126953125 63.572017669677734 131.005126953125 63.27201843261719 L 131.005126953125 47.71202087402344 C 131.005126953125 47.412017822265625 131.07179260253906 47.1920166015625 131.2051239013672 47.05201721191406 C 131.3384552001953 46.91868591308594 131.55845642089844 46.852020263671875 131.86512756347656 46.852020263671875 L 135.5851287841797 46.852020263671875 C 135.89178466796875 46.852020263671875 136.11178588867188 46.91868591308594 136.2451171875 47.05201721191406 C 136.3784637451172 47.1920166015625 136.44512939453125 47.412017822265625 136.44512939453125 47.71202087402344 L 136.44512939453125 59.592018127441406 L 139.73512268066406 59.592018127441406 L 139.73512268066406 55.71202087402344 C 139.73512268066406 55.40535354614258 139.8051300048828 55.18535232543945 139.94512939453125 55.05201721191406 C 140.07846069335938 54.912017822265625 140.2984619140625 54.842018127441406 140.60511779785156 54.842018127441406 L 144.0851287841797 54.842018127441406 C 144.38511657714844 54.842018127441406 144.60511779785156 54.912017822265625 144.7451171875 55.05201721191406 C 144.8784637451172 55.18535232543945 144.94512939453125 55.40535354614258 144.94512939453125 55.71202087402344 L 144.94512939453125 63.27201843261719 C 144.94512939453125 63.572017669677734 144.8784637451172 63.79201889038086 144.7451171875 63.9320182800293 C 144.60511779785156 64.06535339355469 144.38511657714844 64.13201904296875 144.0851287841797 64.13201904296875 ZM 166.164306640625 64.13201904296875 L 153.94430541992188 64.13201904296875 C 153.63763427734375 64.13201904296875 153.41763305664062 64.06535339355469 153.2843017578125 63.9320182800293 C 153.15097045898438 63.79201889038086 153.0843048095703 63.572017669677734 153.0843048095703 63.27201843261719 L 153.0843048095703 47.71202087402344 C 153.0843048095703 47.412017822265625 153.15097045898438 47.1920166015625 153.2843017578125 47.05201721191406 C 153.41763305664062 46.91868591308594 153.63763427734375 46.852020263671875 153.94430541992188 46.852020263671875 L 157.664306640625 46.852020263671875 C 157.97096252441406 46.852020263671875 158.1909637451172 46.91868591308594 158.3242950439453 47.05201721191406 C 158.4576416015625 47.1920166015625 158.52430725097656 47.412017822265625 158.52430725097656 47.71202087402344 L 158.52430725097656 59.592018127441406 L 161.81430053710938 59.592018127441406 L 161.81430053710938 55.71202087402344 C 161.81430053710938 55.40535354614258 161.88430786132812 55.18535232543945 162.02430725097656 55.05201721191406 C 162.1576385498047 54.912017822265625 162.3776397705078 54.842018127441406 162.68429565429688 54.842018127441406 L 166.164306640625 54.842018127441406 C 166.46429443359375 54.842018127441406 166.68429565429688 54.912017822265625 166.8242950439453 55.05201721191406 C 166.9576416015625 55.18535232543945 167.02430725097656 55.40535354614258 167.02430725097656 55.71202087402344 L 167.02430725097656 63.27201843261719 C 167.02430725097656 63.572017669677734 166.9576416015625 63.79201889038086 166.8242950439453 63.9320182800293 C 166.68429565429688 64.06535339355469 166.46429443359375 64.13201904296875 166.164306640625 64.13201904296875 ZM 181.76368713378906 64.13201904296875 L 170.62368774414062 64.13201904296875 C 170.3170166015625 64.13201904296875 170.09701538085938 64.06535339355469 169.96368408203125 63.9320182800293 C 169.83035278320312 63.79201889038086 169.76368713378906 63.572017669677734 169.76368713378906 63.27201843261719 L 169.76368713378906 47.71202087402344 C 169.76368713378906 47.412017822265625 169.83035278320312 47.1920166015625 169.96368408203125 47.05201721191406 C 170.09701538085938 46.91868591308594 170.3170166015625 46.852020263671875 170.62368774414062 46.852020263671875 L 181.76368713378906 46.852020263671875 C 182.06369018554688 46.852020263671875 182.28369140625 46.91868591308594 182.42367553710938 47.05201721191406 C 182.55702209472656 47.1920166015625 182.62368774414062 47.412017822265625 182.62368774414062 47.71202087402344 L 182.62368774414062 50.52201843261719 C 182.62368774414062 50.82868576049805 182.55702209472656 51.04868698120117 182.42367553710938 51.1820182800293 C 182.28369140625 51.322017669677734 182.06369018554688 51.39202117919922 181.76368713378906 51.39202117919922 L 175.13368225097656 51.39202117919922 L 175.13368225097656 53.232017517089844 L 179.81369018554688 53.232017517089844 C 180.12034606933594 53.232017517089844 180.34034729003906 53.30201721191406 180.4736785888672 53.442020416259766 C 180.61367797851562 53.57535171508789 180.68368530273438 53.795352935791016 180.68368530273438 54.102020263671875 L 180.68368530273438 56.672019958496094 C 180.68368530273438 56.97201919555664 180.61367797851562 57.192020416259766 180.4736785888672 57.3320198059082 C 180.34034729003906 57.46535110473633 180.12034606933594 57.532020568847656 179.81369018554688 57.532020568847656 L 175.13368225097656 57.532020568847656 L 175.13368225097656 59.592018127441406 L 181.76368713378906 59.592018127441406 C 182.06369018554688 59.592018127441406 182.28369140625 59.662017822265625 182.42367553710938 59.80201721191406 C 182.55702209472656 59.93535232543945 182.62368774414062 60.15535354614258 182.62368774414062 60.46202087402344 L 182.62368774414062 63.27201843261719 C 182.62368774414062 63.572017669677734 182.55702209472656 63.79201889038086 182.42367553710938 63.9320182800293 C 182.28369140625 64.06535339355469 182.06369018554688 64.13201904296875 181.76368713378906 64.13201904296875 ZM 197.4591064453125 64.13201904296875 L 186.31910705566406 64.13201904296875 C 186.01243591308594 64.13201904296875 185.7924346923828 64.06535339355469 185.6591033935547 63.9320182800293 C 185.52577209472656 63.79201889038086 185.4591064453125 63.572017669677734 185.4591064453125 63.27201843261719 L 185.4591064453125 47.71202087402344 C 185.4591064453125 47.412017822265625 185.52577209472656 47.1920166015625 185.6591033935547 47.05201721191406 C 185.7924346923828 46.91868591308594 186.01243591308594 46.852020263671875 186.31910705566406 46.852020263671875 L 197.4591064453125 46.852020263671875 C 197.7591094970703 46.852020263671875 197.97909545898438 46.91868591308594 198.11911010742188 47.05201721191406 C 198.25244140625 47.1920166015625 198.31910705566406 47.412017822265625 198.31910705566406 47.71202087402344 L 198.31910705566406 50.52201843261719 C 198.31910705566406 50.82868576049805 198.25244140625 51.04868698120117 198.11911010742188 51.1820182800293 C 197.97909545898438 51.322017669677734 197.7591094970703 51.39202117919922 197.4591064453125 51.39202117919922 L 190.8291015625 51.39202117919922 L 190.8291015625 53.232017517089844 L 195.5091094970703 53.232017517089844 C 195.81576538085938 53.232017517089844 196.0357666015625 53.30201721191406 196.16909790039062 53.442020416259766 C 196.30909729003906 53.57535171508789 196.3791046142578 53.795352935791016 196.3791046142578 54.102020263671875 L 196.3791046142578 56.672019958496094 C 196.3791046142578 56.97201919555664 196.30909729003906 57.192020416259766 196.16909790039062 57.3320198059082 C 196.0357666015625 57.46535110473633 195.81576538085938 57.532020568847656 195.5091094970703 57.532020568847656 L 190.8291015625 57.532020568847656 L 190.8291015625 59.592018127441406 L 197.4591064453125 59.592018127441406 C 197.7591094970703 59.592018127441406 197.97909545898438 59.662017822265625 198.11911010742188 59.80201721191406 C 198.25244140625 59.93535232543945 198.31910705566406 60.15535354614258 198.31910705566406 60.46202087402344 L 198.31910705566406 63.27201843261719 C 198.31910705566406 63.572017669677734 198.25244140625 63.79201889038086 198.11911010742188 63.9320182800293 C 197.97909545898438 64.06535339355469 197.7591094970703 64.13201904296875 197.4591064453125 64.13201904296875 ZM 210.10450744628906 64.13201904296875 L 202.01451110839844 64.13201904296875 C 201.7078399658203 64.13201904296875 201.4878387451172 64.06535339355469 201.35450744628906 63.9320182800293 C 201.22117614746094 63.79201889038086 201.15451049804688 63.572017669677734 201.15451049804688 63.27201843261719 L 201.15451049804688 47.71202087402344 C 201.15451049804688 47.412017822265625 201.22117614746094 47.1920166015625 201.35450744628906 47.05201721191406 C 201.4878387451172 46.91868591308594 201.7078399658203 46.852020263671875 202.01451110839844 46.852020263671875 L 210.10450744628906 46.852020263671875 C 212.10450744628906 46.852020263671875 213.5878448486328 47.25202178955078 214.55450439453125 48.05201721191406 C 215.52117919921875 48.852020263671875 216.00450134277344 50.085350036621094 216.00450134277344 51.752017974853516 L 216.00450134277344 59.232017517089844 C 216.00450134277344 60.898685455322266 215.52117919921875 62.13201904296875 214.55450439453125 62.9320182800293 C 213.5878448486328 63.732017517089844 212.10450744628906 64.13201904296875 210.10450744628906 64.13201904296875 M 206.59451293945312 51.4320182800293 L 206.59451293945312 59.592018127441406 L 209.4545135498047 59.592018127441406 C 209.84117126464844 59.592018127441406 210.12451171875 59.498687744140625 210.30450439453125 59.31201934814453 C 210.49118041992188 59.11868667602539 210.58450317382812 58.822017669677734 210.58450317382812 58.422019958496094 L 210.58450317382812 52.592018127441406 C 210.58450317382812 52.192020416259766 210.49118041992188 51.898685455322266 210.30450439453125 51.71202087402344 C 210.12451171875 51.525352478027344 209.84117126464844 51.4320182800293 209.4545135498047 51.4320182800293 L 206.59451293945312 51.4320182800293 ZM 227.06784057617188 64.13201904296875 L 219.4878387451172 64.13201904296875 C 219.18118286132812 64.13201904296875 218.961181640625 64.06535339355469 218.8278350830078 63.9320182800293 C 218.68783569335938 63.79201889038086 218.6178436279297 63.572017669677734 218.6178436279297 63.27201843261719 L 218.6178436279297 60.46202087402344 C 218.6178436279297 60.15535354614258 218.68783569335938 59.93535232543945 218.8278350830078 59.80201721191406 C 218.961181640625 59.662017822265625 219.18118286132812 59.592018127441406 219.4878387451172 59.592018127441406 L 225.93783569335938 59.592018127441406 C 226.1511688232422 59.592018127441406 226.30784606933594 59.525352478027344 226.4078369140625 59.39202117919922 C 226.51451110839844 59.25868606567383 226.56784057617188 59.09535217285156 226.56784057617188 58.90201950073242 C 226.56784057617188 58.628684997558594 226.51451110839844 58.42868423461914 226.4078369140625 58.30201721191406 C 226.30784606933594 58.17535400390625 226.1511688232422 58.102020263671875 225.93783569335938 58.0820198059082 L 222.3378448486328 57.5820198059082 C 221.2178497314453 57.422019958496094 220.31784057617188 57.05201721191406 219.63784790039062 56.47201919555664 C 218.9578399658203 55.898685455322266 218.6178436279297 54.93868637084961 218.6178436279297 53.592018127441406 L 218.6178436279297 51.072017669677734 C 218.6178436279297 49.71202087402344 219.05784606933594 48.66868591308594 219.93783569335938 47.9420166015625 C 220.81784057617188 47.215354919433594 222.03451538085938 46.852020263671875 223.5878448486328 46.852020263671875 L 230.30784606933594 46.852020263671875 C 230.614501953125 46.852020263671875 230.83450317382812 46.91868591308594 230.96783447265625 47.05201721191406 C 231.10784912109375 47.1920166015625 231.17784118652344 47.412017822265625 231.17784118652344 47.71202087402344 L 231.17784118652344 50.572017669677734 C 231.17784118652344 50.878684997558594 231.10784912109375 51.09868621826172 230.96783447265625 51.232017517089844 C 230.83450317382812 51.365352630615234 230.614501953125 51.4320182800293 230.30784606933594 51.4320182800293 L 224.7178497314453 51.4320182800293 C 224.51116943359375 51.4320182800293 224.35118103027344 51.502017974853516 224.2378387451172 51.64202117919922 C 224.12451171875 51.775352478027344 224.06784057617188 51.945350646972656 224.06784057617188 52.15201950073242 C 224.06784057617188 52.365352630615234 224.12451171875 52.54201889038086 224.2378387451172 52.6820182800293 C 224.35118103027344 52.82868576049805 224.51116943359375 52.90868377685547 224.7178497314453 52.922019958496094 L 228.29783630371094 53.40201950073242 C 229.4178466796875 53.56201934814453 230.32118225097656 53.9320182800293 231.00784301757812 54.512020111083984 C 231.6945037841797 55.085350036621094 232.037841796875 56.045352935791016 232.037841796875 57.39202117919922 L 232.037841796875 59.912017822265625 C 232.037841796875 61.27201843261719 231.59451293945312 62.31535339355469 230.7078399658203 63.04201889038086 C 229.82118225097656 63.76868438720703 228.60784912109375 64.13201904296875 227.06784057617188 64.13201904296875 Z" transform="matrix(2.129044771194458, 0, 0, 2.129044771194458, -118.92237091064453, -67.12812805175781)" style="fill: rgb(51, 51, 51); white-space: pre; color: rgb(51, 51, 51); stroke: rgb(255, 152, 8); stroke-width: 2; stroke-opacity: 1; paint-order: fill;"/></svg>